<svg xmlns="http://www.w3.org/2000/svg" viewBox="0 0 500 150">
  <path fill="#2F4538" d="M65.4 0c-2.8 0-5.4.4-7.8 1.2-4.8 1.6-8.8 4.4-11.6 8-2.8 3.6-4.2 7.6-4.2 12v.4c0 4.4 1.4 8.4 4.2 12 2.8 3.6 6.8 6.4 11.6 8 2.4.8 5 1.2 7.8 1.2 2.8 0 5.4-.4 7.8-1.2 4.8-1.6 8.8-4.4 11.6-8 2.8-3.6 4.2-7.6 4.2-12v-.4c0-4.4-1.4-8.4-4.2-12-2.8-3.6-6.8-6.4-11.6-8-2.4-.8-5-1.2-7.8-1.2zm0 4c2 0 3.8.2 5.6.8 3.6 1.2 6.4 3.2 8.4 5.6 2 2.4 3 5.2 3 8.4v.4c0 3.2-1 6-3 8.4-2 2.4-4.8 4.4-8.4 5.6-1.8.6-3.6.8-5.6.8-2 0-3.8-.2-5.6-.8-3.6-1.2-6.4-3.2-8.4-5.6-2-2.4-3-5.2-3-8.4v-.4c0-3.2 1-6 3-8.4 2-2.4 4.8-4.4 8.4-5.6 1.8-.6 3.6-.8 5.6-.8z"/>
  <path fill="#2F4538" d="M65.4 8c-1.2 0-2.4.2-3.4.4-2.4.8-4.4 2-5.8 3.6-1.4 1.6-2.2 3.4-2.2 5.2v.2c0 1.8.8 3.6 2.2 5.2 1.4 1.6 3.4 2.8 5.8 3.6 1 .2 2.2.4 3.4.4 1.2 0 2.4-.2 3.4-.4 2.4-.8 4.4-2 5.8-3.6 1.4-1.6 2.2-3.4 2.2-5.2v-.2c0-1.8-.8-3.6-2.2-5.2-1.4-1.6-3.4-2.8-5.8-3.6-1-.2-2.2-.4-3.4-.4z"/>
  <text x="120" y="35" fill="#2F4538" font-family="Arial" font-size="48" font-weight="bold">BAMBOOZ</text>
</svg> 